<svg width="20" height="20" viewBox="0 0 20 20" fill="none" xmlns="http://www.w3.org/2000/svg">
<path d="M19.9324 5.85986C19.6609 4.2028 18.738 2.87261 17.1615 1.94982C16.2663 1.40667 15.2605 1.13513 14.2547 1.13513C12.9522 1.13513 11.7301 1.59779 10.8048 2.46532C10.5056 2.73689 10.2617 3.00847 9.99011 3.30769C9.20307 2.32953 8.38839 1.73361 7.46556 1.43439C5.8085 0.891238 4.17909 1.10748 2.68547 2.05799C0.895147 3.197 0 4.79873 0 6.8355C0 8.0299 0.40736 9.17149 1.22205 10.3105C2.09206 11.5326 3.17832 12.7823 4.58897 14.2482C5.56713 15.2264 6.54525 16.2045 7.52089 17.155L8.47136 18.0778C8.55182 18.1583 8.6348 18.2413 8.71525 18.3217L8.82339 18.4299C9.01451 18.5933 9.447 18.8649 9.99011 18.8649C10.4528 18.8649 10.8853 18.6737 11.2675 18.3217C12.8969 16.7728 14.6621 15.0906 16.3191 13.2977C17.1891 12.3749 18.1648 11.261 18.9795 10.039C19.8495 8.71131 20.1487 7.29815 19.9324 5.85986ZM18.1396 9.47067C17.3802 10.6374 16.4549 11.6432 15.5874 12.5937C13.9303 14.3589 12.2205 16.0436 10.5911 17.5623C10.3748 17.7534 10.1837 17.8339 9.99263 17.8339C9.74874 17.8339 9.55762 17.6981 9.50481 17.6428L9.42435 17.5623C9.34389 17.4819 9.26092 17.3989 9.18046 17.3184L8.22998 16.4233C7.27951 15.4728 6.27371 14.5223 5.32323 13.5442C3.91007 12.1059 2.90678 10.9366 2.03677 9.74225C1.35787 8.76409 1.00584 7.81362 1.00584 6.8355C1.00584 5.15079 1.71242 3.84825 3.20604 2.89778C3.99308 2.38231 4.83545 2.13839 5.67778 2.13839C6.1656 2.13839 6.65594 2.21884 7.14372 2.38228C7.93076 2.65385 8.60966 3.16932 9.31625 4.03933C9.37157 4.09466 9.61547 4.36624 10.0228 4.36624C10.1863 4.36624 10.4578 4.31091 10.7017 4.03933L10.7294 3.98401C11.0009 3.68479 11.2448 3.41321 11.4888 3.16932C12.2482 2.46274 13.1986 2.1107 14.2598 2.1107C15.1021 2.1107 15.9168 2.3546 16.6485 2.78961C17.951 3.57665 18.713 4.6101 18.9292 5.99309C19.1178 7.21769 18.8739 8.35676 18.1396 9.47067ZM6.97774 4.96216C6.8696 5.20605 6.57038 5.31419 6.29884 5.20605C6.05494 5.09792 5.81102 5.04262 5.53945 5.04262C4.53364 5.04262 3.71896 5.85731 3.71896 6.86311C3.71896 7.21514 3.8271 7.56969 4.01818 7.86891C4.18161 8.08516 4.09864 8.41206 3.88239 8.57549C3.80193 8.63082 3.69128 8.65595 3.61082 8.65595C3.44738 8.65595 3.28392 8.57549 3.20346 8.43971C2.90424 7.97705 2.7408 7.43391 2.7408 6.86563C2.7408 5.31668 4.01818 4.04185 5.56458 4.04185C5.97194 4.04185 6.37926 4.12231 6.75898 4.31342C6.97774 4.41905 7.08588 4.71827 6.97774 4.96216Z" fill="black"/>
</svg>
