<svg width="44" height="40" viewBox="0 0 44 40" fill="none" xmlns="http://www.w3.org/2000/svg">
<path d="M34.599 16.1328C34.4787 15.9766 34.2811 15.8828 34.0748 15.8828H30.0787V14.3359C30.0787 14.0156 29.7865 13.75 29.4342 13.75H14.9537C14.6014 13.75 14.3092 14.0156 14.3092 14.3359V23.8047C14.3092 24.125 14.6014 24.3906 14.9537 24.3906H16.7756C17.1108 25.4531 18.1936 26.2422 19.4655 26.2422C20.7373 26.2422 21.8201 25.4609 22.1553 24.3906H29.2967C29.6319 25.4531 30.7147 26.2422 31.9865 26.2422C33.2584 26.2422 34.3412 25.4609 34.6764 24.3906H36.0084C36.3608 24.3906 36.653 24.125 36.653 23.8047V18.9844C36.653 18.8594 36.61 18.7422 36.5326 18.6484L34.599 16.1328ZM35.3725 19.1562H32.485V17.0625H33.7483L35.3725 19.1562ZM15.5983 14.9297H28.7897V23.2266H22.2155C21.9662 22.0469 20.8319 21.1562 19.4655 21.1562C18.099 21.1562 16.9561 22.0469 16.7155 23.2266H15.5983V14.9297ZM19.4655 25.0703C18.6319 25.0703 17.953 24.4531 17.953 23.6953C17.953 22.9375 18.6319 22.3203 19.4655 22.3203C20.299 22.3203 20.978 22.9375 20.978 23.6953C20.978 24.4531 20.299 25.0703 19.4655 25.0703ZM31.9951 25.0703C31.1615 25.0703 30.4826 24.4531 30.4826 23.6953C30.4826 22.9375 31.1615 22.3203 31.9951 22.3203C32.8287 22.3203 33.5076 22.9375 33.5076 23.6953C33.5076 24.4531 32.8287 25.0703 31.9951 25.0703ZM34.7451 23.2266C34.4959 22.0469 33.3615 21.1562 31.9951 21.1562C31.2561 21.1562 30.5772 21.4219 30.0787 21.8516V17.0625H31.1873V19.7422C31.1873 20.0625 31.4795 20.3281 31.8319 20.3281H35.3811V23.2266H34.7451Z" fill="black"/>
<path d="M8.04376 14.9299H12.6414C12.9938 14.9299 13.286 14.6642 13.286 14.3439C13.286 14.0236 12.9938 13.758 12.6414 13.758H8.04376C7.69142 13.758 7.39923 14.0236 7.39923 14.3439C7.39923 14.6642 7.69142 14.9299 8.04376 14.9299Z" fill="black"/>
<path d="M12.6415 15.8601H9.10083C8.74849 15.8601 8.4563 16.1257 8.4563 16.446C8.4563 16.7664 8.74849 17.032 9.10083 17.032H12.6415C12.9938 17.032 13.286 16.7664 13.286 16.446C13.286 16.1257 13.0024 15.8601 12.6415 15.8601Z" fill="black"/>
<path d="M12.6414 17.9622H10.407C10.0547 17.9622 9.76251 18.2278 9.76251 18.5482C9.76251 18.8685 10.0547 19.1341 10.407 19.1341H12.6414C12.9938 19.1341 13.286 18.8685 13.286 18.5482C13.286 18.2278 13.0024 17.9622 12.6414 17.9622Z" fill="black"/>
<path d="M12.6414 20.0643H11.868C11.5156 20.0643 11.2234 20.33 11.2234 20.6503C11.2234 20.9706 11.5156 21.2362 11.868 21.2362H12.6414C12.9938 21.2362 13.2859 20.9706 13.2859 20.6503C13.2859 20.33 13.0024 20.0643 12.6414 20.0643Z" fill="black"/>
</svg>
