<svg width="20" height="20" viewBox="0 0 20 20" fill="none" xmlns="http://www.w3.org/2000/svg">
<g clip-path="url(#clip0_155_53)">
<path d="M19.656 -7.34186e-05C19.6449 0.000257229 19.6337 0.00114724 19.6227 0.00259325L9.62267 1.33593C9.54255 1.3466 9.46903 1.38601 9.41581 1.44684C9.36258 1.50767 9.33327 1.58577 9.33333 1.66659V8.99993C9.33333 9.08833 9.36845 9.17312 9.43096 9.23563C9.49348 9.29814 9.57826 9.33326 9.66667 9.33326H19.6667C19.7551 9.33326 19.8399 9.29814 19.9024 9.23563C19.9649 9.17312 20 9.08833 20 8.99993V0.33326C20 0.288574 19.9911 0.244339 19.9736 0.203186C19.9562 0.162033 19.9307 0.124801 19.8986 0.0937048C19.8665 0.0626083 19.8285 0.0382819 19.7868 0.0221718C19.7452 0.00606159 19.7007 -0.00150338 19.656 -7.34186e-05ZM19.3333 0.714593V8.66659H10V1.95793L19.3333 0.714593ZM9.66667 10.6666C9.57826 10.6666 9.49348 10.7017 9.43096 10.7642C9.36845 10.8267 9.33333 10.9115 9.33333 10.9999V18.2046C9.33346 18.2846 9.36235 18.3619 9.41474 18.4223C9.46712 18.4828 9.5395 18.5224 9.61867 18.5339L19.6187 19.9966C19.666 20.0035 19.7143 20.0001 19.7602 19.9867C19.8061 19.9732 19.8486 19.9501 19.8848 19.9188C19.921 19.8875 19.95 19.8488 19.9699 19.8052C19.9897 19.7617 20 19.7144 20 19.6666V10.9999C20 10.9115 19.9649 10.8267 19.9024 10.7642C19.8399 10.7017 19.7551 10.6666 19.6667 10.6666H9.66667ZM10 11.3333H19.3333V19.2813L10 17.9166V11.3333ZM0.333333 10.6666C0.244928 10.6666 0.160143 10.7017 0.0976311 10.7642C0.035119 10.8267 1.85402e-08 10.9115 1.85402e-08 10.9999V16.3333C-2.59907e-05 16.4113 0.0273143 16.4868 0.0772596 16.5468C0.127205 16.6067 0.196591 16.6472 0.273333 16.6613L7.60667 17.9946C7.65473 18.0034 7.70415 18.0015 7.75141 17.9891C7.79867 17.9767 7.84262 17.954 7.88015 17.9227C7.91768 17.8914 7.94787 17.8522 7.96858 17.808C7.98929 17.7637 8.00002 17.7155 8 17.6666V10.9999C8 10.9115 7.96488 10.8267 7.90237 10.7642C7.83986 10.7017 7.75507 10.6666 7.66667 10.6666H0.333333ZM0.666667 11.3333H7.33333V17.2666L0.666667 16.0546V11.3333ZM7.656 1.99993C7.63945 2.00048 7.62296 2.00226 7.60667 2.00526L0.273333 3.33859C0.196591 3.35264 0.127205 3.39315 0.0772596 3.45309C0.0273143 3.51302 -2.59907e-05 3.58858 1.85402e-08 3.66659V8.99993C1.85402e-08 9.08833 0.035119 9.17312 0.0976311 9.23563C0.160143 9.29814 0.244928 9.33326 0.333333 9.33326H7.66667C7.75507 9.33326 7.83986 9.29814 7.90237 9.23563C7.96488 9.17312 8 9.08833 8 8.99993V2.33326C8.00002 2.28857 7.99106 2.24434 7.97365 2.20319C7.95623 2.16203 7.93072 2.1248 7.89863 2.0937C7.86654 2.06261 7.82852 2.03828 7.78684 2.02217C7.74516 2.00606 7.70066 1.9985 7.656 1.99993ZM7.33333 2.73326V8.66659H0.666667V3.94526L7.33333 2.73326Z" fill="black"/>
</g>
<defs>
<clipPath id="clip0_155_53">
<rect width="20" height="20" fill="white"/>
</clipPath>
</defs>
</svg>
