<svg width="24" height="24" viewBox="0 0 24 24" fill="none" xmlns="http://www.w3.org/2000/svg">
<path d="M17.5531 16.445C17.6287 16.1794 17.9053 16.0254 18.1709 16.1009C18.4365 16.1765 18.5905 16.4531 18.515 16.7187C18.2719 17.5727 17.5931 18.2421 16.716 18.4614L8.58847 20.4932C7.21459 20.8107 5.8669 19.9801 5.55485 18.6279L3.45444 9.5261C3.14795 8.19801 3.96178 6.86917 5.28408 6.5386L7.1731 6.06634C7.441 5.99937 7.71247 6.16225 7.77944 6.43014C7.84641 6.69804 7.68353 6.96951 7.41564 7.03648L5.52661 7.50874C4.73323 7.70708 4.24494 8.50439 4.42883 9.30124L6.52924 18.403C6.71646 19.2143 7.525 19.7126 8.35463 19.521L16.4734 17.4913C17.0001 17.3596 17.4071 16.9582 17.5531 16.445ZM20 13.2929V5.5C20 4.67157 19.3284 4 18.5 4H9.50002C8.67159 4 8.00002 4.67157 8.00002 5.5V11.2929L10.1465 9.14645C10.3417 8.95118 10.6583 8.95118 10.8536 9.14645L14.5637 12.8566L17.2227 11.084C17.421 10.9518 17.685 10.9779 17.8536 11.1464L20 13.2929ZM19.9875 14.6946L17.4363 12.1434L14.7774 13.916C14.5791 14.0482 14.315 14.0221 14.1465 13.8536L10.5 10.2071L8.00002 12.7071V14.5C8.00002 15.3284 8.67159 16 9.50002 16H18.5C19.2625 16 19.8921 15.4311 19.9875 14.6946ZM9.50002 3H18.5C19.8807 3 21 4.11929 21 5.5V14.5C21 15.8807 19.8807 17 18.5 17H9.50002C8.1193 17 7.00002 15.8807 7.00002 14.5V5.5C7.00002 4.11929 8.1193 3 9.50002 3ZM16 5H18C18.5523 5 19 5.44772 19 6V8C19 8.55228 18.5523 9 18 9H16C15.4477 9 15 8.55228 15 8V6C15 5.44772 15.4477 5 16 5ZM16 6V8H18V6H16Z" fill="black"/>
</svg>
