<svg width="25" height="19" viewBox="0 0 25 19" fill="none" xmlns="http://www.w3.org/2000/svg">
<path d="M21.875 18.875H3.125C1.39922 18.875 0 17.4758 0 15.75V3.25C0 1.52422 1.39922 0.125 3.125 0.125H21.875C23.6008 0.125 25 1.52422 25 3.25V15.75C25 17.4758 23.6008 18.875 21.875 18.875ZM16.7313 10.5361L23.3459 16.2047C23.3917 16.0583 23.4375 15.9118 23.4375 15.75V3.25C23.4375 3.14165 23.3963 3.04551 23.375 2.94331L16.7313 10.5361ZM21.875 17.3125C21.9788 17.3125 22.0703 17.2728 22.168 17.253L12.5 8.96592L2.83203 17.253C2.92969 17.2728 3.02124 17.3125 3.125 17.3125H21.875ZM1.62432 2.94482C1.60293 3.04707 1.5625 3.14165 1.5625 3.25V15.75C1.5625 15.9118 1.60903 16.0583 1.65483 16.2047L8.26724 10.5376L1.62432 2.94482ZM3.125 1.6875C2.96709 1.6875 2.82363 1.7333 2.67944 1.77754L9.45435 9.51987L11.9919 7.34551C12.1376 7.2188 12.3192 7.15625 12.5 7.15625C12.6808 7.15625 12.8624 7.2188 13.0081 7.34546L15.5457 9.51982L22.3206 1.77749C22.1771 1.7333 22.0337 1.6875 21.875 1.6875H3.125Z" fill="black"/>
</svg>
