<svg width="25" height="25" viewBox="0 0 25 25" fill="none" xmlns="http://www.w3.org/2000/svg">
<path d="M24.8875 19.9262L24.7631 19.5513C24.4684 18.6753 23.5024 17.7617 22.6149 17.521L19.3305 16.6238C18.4398 16.3814 17.1692 16.7073 16.5176 17.3589L15.3288 18.5476C11.0088 17.3803 7.62125 13.9926 6.45549 9.67342L7.64425 8.48466C8.29593 7.83298 8.62171 6.56411 8.37939 5.67342L7.48377 2.38733C7.24145 1.49826 6.32618 0.532278 5.45189 0.240811L5.07696 0.114752C4.20099 -0.176714 2.95171 0.118053 2.30009 0.769674L0.52195 2.54944C0.204286 2.86542 0.00126063 3.76922 0.00126063 3.77252C-0.0609308 9.41795 2.15271 14.857 6.14605 18.8504C10.1296 22.834 15.5483 25.0444 21.1774 24.9969C21.2068 24.9969 22.1368 24.7971 22.4545 24.4811L24.2326 22.703C24.8842 22.0514 25.1789 20.8022 24.8875 19.9262Z" fill="black"/>
</svg>
